<svg width="151" height="148" viewBox="0 0 151 148" fill="none" xmlns="http://www.w3.org/2000/svg">
<path d="M19.4087 109.025C19.8712 109.025 20.315 109.21 20.6421 109.537C20.9691 109.864 21.1536 110.308 21.1536 110.77V118.786C21.1326 121.321 21.9117 123.798 23.3775 125.866C24.8444 127.933 26.9246 129.486 29.3226 130.305C30.6436 130.767 32.0335 131.002 33.4327 131.002C37.1236 130.998 40.6076 129.303 42.8935 126.405L45.7749 122.806C49.148 127.314 54.4521 129.965 60.0838 129.956H92.7352C93.5177 129.94 94.2734 130.242 94.8282 130.793L108.433 144.398C110.717 146.692 113.819 147.985 117.056 147.992C120.293 148 123.401 146.721 125.696 144.438C127.991 142.156 129.285 139.053 129.293 135.817V132.886C129.286 132.107 129.592 131.358 130.144 130.806C130.695 130.255 131.445 129.949 132.224 129.956C136.996 129.952 141.574 128.054 144.948 124.68C148.322 121.306 150.22 116.728 150.224 111.956V53.7695C150.22 48.9959 148.322 44.4197 144.948 41.0454C141.574 37.6699 136.996 35.7718 132.224 35.7685H122.317V20.0708C122.311 14.9841 120.288 10.1079 116.692 6.51032C113.095 2.91419 108.218 0.889922 103.131 0.885437H19.4092C14.3226 0.890109 9.44638 2.91425 5.84876 6.51032C2.25262 10.1076 0.228362 14.9841 0.223877 20.0708V89.8406C0.227381 94.9273 2.25032 99.8058 5.84666 103.403C9.44399 106.999 14.3229 109.022 19.4092 109.026L19.4087 109.025ZM132.223 46.2343C134.222 46.2366 136.137 47.0309 137.549 48.4441C138.962 49.8562 139.757 51.7717 139.758 53.77V111.956V111.955C139.757 113.954 138.962 115.869 137.549 117.281C136.137 118.694 134.221 119.489 132.223 119.49C128.671 119.493 125.267 120.906 122.756 123.418C120.244 125.929 118.831 129.334 118.827 132.885V135.816C118.857 136.513 118.43 137.149 117.774 137.386C117.111 137.691 116.327 137.535 115.828 137.001L102.223 123.397C99.7087 120.88 96.2923 119.473 92.7348 119.49H60.0834C58.4319 119.486 56.8306 118.925 55.5389 117.896C54.2482 116.868 53.3407 115.433 52.9669 113.825L56.2805 109.681C56.6181 109.256 57.1343 109.013 57.6763 109.025H103.131C108.219 109.021 113.096 106.998 116.694 103.402C120.291 99.8048 122.314 94.926 122.318 89.8396V46.2327L132.223 46.2343ZM10.6897 20.0714C10.6932 17.7599 11.6135 15.5441 13.2476 13.9092C14.8828 12.2752 17.0985 11.3548 19.4098 11.3513H103.131C105.444 11.3548 107.66 12.2751 109.295 13.9092C110.929 15.5444 111.849 17.76 111.852 20.0714V89.8412C111.849 92.1526 110.929 94.3684 109.295 96.0034C107.659 97.6374 105.444 98.5578 103.131 98.5613H57.6435C53.9341 98.5531 50.4232 100.241 48.1139 103.146L34.7604 119.883C34.2967 120.461 33.5177 120.683 32.8192 120.437C32.1207 120.19 31.6535 119.528 31.6559 118.787V110.771C31.6512 107.528 30.3594 104.42 28.063 102.13C25.7668 99.8391 22.654 98.5568 19.4104 98.5613C17.099 98.5578 14.8832 97.6374 13.2482 96.0034C11.6142 94.3682 10.6938 92.1525 10.6903 89.8412L10.6897 20.0714Z" fill="black"/>
</svg>
