<svg width="151" height="151" viewBox="0 0 151 151" fill="none" xmlns="http://www.w3.org/2000/svg">
<path d="M75.0425 0.540109C55.1507 0.540109 36.0742 8.44238 22.0105 22.5082C7.94475 36.5729 0.0424805 55.6497 0.0424805 75.5401C0.0424805 95.4305 7.94475 114.508 22.0105 128.572C36.0753 142.638 55.1521 150.54 75.0425 150.54C94.9329 150.54 114.011 142.638 128.074 128.572C142.14 114.507 150.042 95.4305 150.042 75.5401C150.02 55.6557 142.111 36.5909 128.051 22.5301C113.991 8.46973 94.9258 0.560899 75.0408 0.538467L75.0425 0.540109ZM97.5746 98.0745C96.6781 98.9742 95.461 99.4796 94.1915 99.4796C92.9221 99.4796 91.705 98.9742 90.8084 98.0745L71.6594 78.9254C70.7596 78.0299 70.2542 76.8117 70.2553 75.5423V43.6263C70.2553 41.9166 71.1678 40.3362 72.6489 39.4814C74.13 38.6254 75.9551 38.6254 77.4362 39.4814C78.9172 40.3362 79.8298 41.9166 79.8298 43.6263V73.5563L97.5747 91.3077C98.4723 92.2043 98.9777 93.4214 98.9777 94.6908C98.9777 95.9602 98.4723 97.1774 97.5747 98.0739L97.5746 98.0745Z" fill="black"/>
</svg>
