<svg width="151" height="151" viewBox="0 0 151 151" fill="none" xmlns="http://www.w3.org/2000/svg">
<path d="M138.015 0.890625H117.085C113.849 0.894129 110.745 2.18125 108.456 4.47061C106.167 6.75997 104.88 9.86316 104.876 13.0996V117.751C104.879 120.988 106.167 124.091 108.456 126.38C110.745 128.669 113.849 129.957 117.085 129.96H138.015C141.252 129.957 144.355 128.67 146.644 126.38C148.933 124.091 150.221 120.988 150.224 117.751V13.0996C150.221 9.86316 148.934 6.75979 146.644 4.47061C144.355 2.18143 141.252 0.894213 138.015 0.890625ZM139.759 117.751C139.759 118.213 139.576 118.657 139.249 118.984C138.922 119.311 138.478 119.495 138.015 119.495H117.085C116.121 119.495 115.341 118.714 115.341 117.751V13.099C115.341 12.1354 116.121 11.3552 117.085 11.3552H138.015C138.478 11.3552 138.922 11.5386 139.249 11.8656C139.576 12.1926 139.759 12.6365 139.759 13.099V117.751Z" fill="black"/>
<path d="M64.7588 28.7974C61.5223 28.8009 58.419 30.0892 56.1298 32.3774C53.8405 34.6666 52.5534 37.7699 52.5498 41.0063V117.752C52.5533 120.988 53.8404 124.092 56.1298 126.381C58.4191 128.67 61.5223 129.957 64.7588 129.961H85.6891C88.9255 129.957 92.0289 128.67 94.3181 126.381C96.6073 124.092 97.8945 120.988 97.8981 117.752V41.0063C97.8946 37.7699 96.6075 34.6665 94.3181 32.3774C92.0289 30.0893 88.9255 28.801 85.6891 28.7974H64.7588ZM87.4329 41.0063V117.752C87.4329 118.214 87.2495 118.658 86.9225 118.985C86.5955 119.312 86.1516 119.496 85.6891 119.496H64.7588C63.7952 119.496 63.015 118.716 63.015 117.752V41.0063C63.015 40.0439 63.7952 39.2625 64.7588 39.2625H85.6891C86.1516 39.2625 86.5955 39.4459 86.9225 39.7729C87.2496 40.1 87.4329 40.5438 87.4329 41.0063Z" fill="black"/>
<path d="M12.4331 129.96H33.3634C36.5999 129.956 39.7032 128.669 41.9924 126.38C44.2816 124.09 45.5688 120.987 45.5724 117.751V68.9143C45.5689 65.6766 44.2818 62.5733 41.9924 60.2853C39.7032 57.996 36.5999 56.7077 33.3634 56.7041H12.4331C9.19666 56.7076 6.09329 57.9959 3.80411 60.2853C1.51487 62.5734 0.227709 65.6766 0.224121 68.9143V117.751C0.227625 120.987 1.51475 124.091 3.80411 126.38C6.09347 128.669 9.19666 129.956 12.4331 129.96V129.96ZM10.6893 68.9149C10.6893 67.9513 11.4695 67.1699 12.4331 67.1699H33.3634C33.826 67.1699 34.2698 67.3544 34.5968 67.6815C34.9239 68.0085 35.1072 68.4523 35.1072 68.9149V117.751C35.1072 118.214 34.9239 118.658 34.5968 118.985C34.2698 119.312 33.826 119.495 33.3634 119.495H12.4331C11.4695 119.495 10.6893 118.715 10.6893 117.751V68.9149Z" fill="black"/>
<path d="M144.991 140.425H5.45712C3.58717 140.425 1.85979 141.422 0.925402 143.041C-0.00898824 144.66 -0.00898824 146.655 0.925402 148.274C1.85979 149.893 3.58723 150.89 5.45712 150.89H144.991C146.861 150.89 148.588 149.893 149.522 148.274C150.457 146.655 150.457 144.66 149.522 143.041C148.588 141.422 146.861 140.425 144.991 140.425V140.425Z" fill="black"/>
</svg>
