<svg width="147" height="151" viewBox="0 0 147 151" fill="none" xmlns="http://www.w3.org/2000/svg">
<path d="M143.02 85.3805L123.282 65.6499C120.992 63.3619 117.886 62.0771 114.648 62.0771C111.411 62.0771 108.305 63.3619 106.015 65.6499L63.4576 108.207C61.409 110.266 60.1581 112.986 59.9267 115.882L58.253 137.279C57.9972 140.67 59.164 144.012 61.4741 146.506C63.7832 149.001 67.0278 150.42 70.4265 150.423C70.7431 150.423 71.0573 150.409 71.3679 150.381L92.7373 148.742L92.7385 148.743C95.6374 148.513 98.3589 147.256 100.413 145.198L142.97 102.641C145.26 100.355 146.55 97.2554 146.56 94.0201C146.569 90.7861 145.296 87.6792 143.019 85.3805L143.02 85.3805ZM135.617 95.2452L93.06 137.802C92.7634 138.095 92.3733 138.276 91.9575 138.311L70.5881 139.958C70.0718 139.993 69.5649 139.808 69.1923 139.449C68.8197 139.086 68.6329 138.572 68.6831 138.053L70.3299 116.684C70.358 116.266 70.5367 115.872 70.8322 115.574L113.389 73.0173C114.07 72.3387 115.172 72.3387 115.852 73.0173L135.59 92.7479H135.589C135.93 93.0714 136.125 93.5199 136.13 93.9906C136.136 94.4601 135.95 94.9133 135.617 95.245L135.617 95.2452Z" fill="black"/>
<path d="M19.4062 150.883H50.8703C52.7402 150.883 54.4676 149.886 55.4019 148.267C56.3363 146.648 56.3363 144.653 55.4019 143.034C54.4676 141.415 52.7401 140.418 50.8703 140.418H19.4062C17.0948 140.414 14.879 139.494 13.2441 137.86C11.6101 136.225 10.6897 134.009 10.6862 131.698V20.0683C10.6897 17.7568 11.6101 15.5411 13.2441 13.9061C14.8793 12.2721 17.0949 11.3517 19.4062 11.3482H89.1755C91.4869 11.3517 93.7027 12.2721 95.3376 13.9061C96.9716 15.5413 97.892 17.757 97.8955 20.0683V56.7648C97.8955 58.6348 98.8929 60.3621 100.512 61.2965C102.131 62.2309 104.126 62.2309 105.744 61.2965C107.363 60.3621 108.361 58.6347 108.361 56.7648V20.0683C108.357 14.9816 106.334 10.1031 102.738 6.5058C99.1405 2.9097 94.2617 0.886645 89.1754 0.883057H19.4061C14.3195 0.886561 9.44099 2.90949 5.84369 6.5058C2.24759 10.1031 0.224535 14.9819 0.220947 20.0683V131.698C0.224451 136.784 2.24738 141.663 5.84369 145.26C9.44099 148.856 14.3198 150.879 19.4061 150.883L19.4062 150.883Z" fill="black"/>
<path d="M33.3606 46.2321H75.221C77.0909 46.2321 78.8183 45.2346 79.7527 43.6158C80.6871 41.997 80.6871 40.002 79.7527 38.3832C78.8183 36.7644 77.0909 35.767 75.221 35.767H33.3606C31.4907 35.767 29.7633 36.7644 28.829 38.3832C27.8946 40.0021 27.8946 41.997 28.829 43.6158C29.7633 45.2346 31.4908 46.2321 33.3606 46.2321Z" fill="black"/>
<path d="M33.3606 74.141H75.221C77.0909 74.141 78.8183 73.1436 79.7527 71.5247C80.6871 69.9059 80.6871 67.911 79.7527 66.2922C78.8183 64.6733 77.0909 63.6759 75.221 63.6759H33.3606C31.4907 63.6759 29.7633 64.6733 28.829 66.2922C27.8946 67.911 27.8946 69.9059 28.829 71.5247C29.7633 73.1436 31.4908 74.141 33.3606 74.141Z" fill="black"/>
</svg>
