<svg width="137" height="151" viewBox="0 0 137 151" fill="none" xmlns="http://www.w3.org/2000/svg">
<path d="M0.333496 131.703C0.337 136.789 2.35993 141.668 5.95744 145.265C9.55474 148.861 14.4324 150.884 19.5199 150.888H117.192C122.28 150.885 127.157 148.862 130.755 145.265C134.352 141.668 136.375 136.789 136.378 131.703V20.0732C136.375 14.9866 134.352 10.108 130.755 6.51074C127.157 2.91464 122.28 0.891589 117.192 0.888H19.5199C14.4321 0.891504 9.55474 2.91443 5.95744 6.51074C2.36014 10.108 0.337084 14.9869 0.333496 20.0732V131.703ZM10.7986 20.0732C10.8021 17.7618 11.7224 15.546 13.3565 13.9111C14.9916 12.2771 17.2073 11.3567 19.5198 11.3532H117.192C119.505 11.3567 121.72 12.277 123.355 13.9111C124.989 15.5462 125.91 17.7619 125.913 20.0732V131.703C125.91 134.014 124.989 136.23 123.355 137.865C121.72 139.499 119.504 140.419 117.192 140.423H19.5198C17.2072 140.419 14.9914 139.499 13.3565 137.865C11.7225 136.23 10.8021 134.014 10.7986 131.703V20.0732Z" fill="black"/>
<path d="M39.0546 67.9614C40.0368 68.9402 41.366 69.4892 42.7523 69.4892C44.1387 69.4892 45.4679 68.9402 46.4501 67.9614L65.0783 49.3754C66.0874 48.4013 66.6644 47.0617 66.6772 45.6588C66.6901 44.2549 66.1376 42.9048 65.146 41.912C64.1544 40.9193 62.8054 40.3668 61.4016 40.3785C59.9977 40.389 58.658 40.9648 57.6826 41.9739L42.7734 56.8622L37.1917 51.2804C35.8602 50.0318 33.9738 49.5681 32.2139 50.0563C30.4549 50.5445 29.0779 51.9146 28.5792 53.6701C28.0816 55.4267 28.5348 57.3152 29.7752 58.655L39.0546 67.9614Z" fill="black"/>
<path d="M82.3111 62.5136H110.218C112.088 62.5136 113.815 61.5162 114.749 59.8973C115.684 58.2785 115.684 56.2836 114.749 54.6648C113.815 53.046 112.087 52.0485 110.218 52.0485H82.3111C80.4412 52.0485 78.7138 53.046 77.7794 54.6648C76.845 56.2836 76.845 58.2785 77.7794 59.8973C78.7138 61.5162 80.4412 62.5136 82.3111 62.5136Z" fill="black"/>
<path d="M39.0544 109.822C40.0367 110.801 41.3659 111.35 42.7522 111.35C44.1386 111.35 45.4677 110.801 46.4499 109.822L65.0781 91.2358C66.3617 89.9078 66.8499 88.0006 66.3629 86.2183C65.8747 84.436 64.4836 83.0438 62.7013 82.5531C60.9201 82.0637 59.0116 82.5508 57.6825 83.8344L42.7734 98.7226L37.1916 93.1408C35.8566 91.8969 33.9692 91.4379 32.2114 91.9308C30.4536 92.4249 29.08 93.7984 28.5872 95.555C28.0932 97.3128 28.5522 99.2002 29.7961 100.536L39.0544 109.822Z" fill="black"/>
<path d="M82.3111 104.374H110.218C112.088 104.374 113.815 103.377 114.749 101.758C115.684 100.139 115.684 98.1439 114.749 96.5251C113.815 94.9063 112.087 93.9089 110.218 93.9089H82.3111C80.4412 93.9089 78.7138 94.9063 77.7794 96.5251C76.845 98.144 76.845 100.139 77.7794 101.758C78.7138 103.377 80.4412 104.374 82.3111 104.374Z" fill="black"/>
</svg>
